<?xml version="1.0" encoding="UTF-8" standalone="no"?>
<svg
   width="28.7724"
   height="28.772381"
   viewBox="0 0 28.7724 28.772381"
   fill="none"
   version="1.1"
   id="svg7"
   sodipodi:docname="tawkee-icon.svg"
   inkscape:version="1.3.2 (091e20e, 2023-11-25, custom)"
   inkscape:export-filename="tawkee-icon.png"
   inkscape:export-xdpi="96"
   inkscape:export-ydpi="96"
   xmlns:inkscape="http://www.inkscape.org/namespaces/inkscape"
   xmlns:sodipodi="http://sodipodi.sourceforge.net/DTD/sodipodi-0.dtd"
   xmlns="http://www.w3.org/2000/svg"
   xmlns:svg="http://www.w3.org/2000/svg">
  <sodipodi:namedview
     id="namedview7"
     pagecolor="#505050"
     bordercolor="#eeeeee"
     borderopacity="1"
     inkscape:showpageshadow="0"
     inkscape:pageopacity="0"
     inkscape:pagecheckerboard="0"
     inkscape:deskcolor="#505050"
     inkscape:zoom="2.66564"
     inkscape:cx="22.883811"
     inkscape:cy="27.948261"
     inkscape:window-width="1366"
     inkscape:window-height="697"
     inkscape:window-x="-8"
     inkscape:window-y="-8"
     inkscape:window-maximized="1"
     inkscape:current-layer="svg7" />
  <path
     d="M 0,9.92148 C 0,4.44202 4.44202,0 9.92152,0 h 8.92938 c 5.4795,0 9.9215,4.44201 9.9215,9.92148 v 18.0572 c 0,0.4384 -0.3554,0.7937 -0.7937,0.7937 H 9.92152 C 4.44202,28.77238 0,24.33038 0,18.85088 Z"
     fill="url(#paint0_linear_312_4644)"
     id="path1"
     style="fill:url(#paint0_linear_312_4644)" />
  <path
     d="m 2.77815,10.71588 c 0,-4.3836 3.55362,-7.93717 7.93725,-7.93717 h 7.1435 c 4.3836,0 7.9372,3.55357 7.9372,7.93727 v 14.4457 c 0,0.3507 -0.2843,0.635 -0.635,0.635 H 10.7154 c -4.38364,0 -7.93725,-3.5537 -7.93725,-7.9373 z"
     fill="#ffffff"
     id="path2" />
  <path
     d="m 18.4852,17.76038 c 0.5308,0 0.9702,0.4341 0.8701,0.9553 -0.0645,0.3353 -0.1629,0.6641 -0.2942,0.9811 -0.2543,0.6139 -0.627,1.1717 -1.0969,1.6416 -0.4699,0.4699 -1.0277,0.8426 -1.6416,1.0969 -0.6139,0.2542 -1.2719,0.3851 -1.9363,0.3851 -0.6645,0 -1.3225,-0.1309 -1.9364,-0.3851 -0.6139,-0.2543 -1.1717,-0.627 -1.6416,-1.0969 -0.4698,-0.4699 -0.84256,-1.0277 -1.09685,-1.6416 -0.13131,-0.317 -0.22971,-0.6458 -0.29418,-0.9811 -0.1002,-0.5212 0.33927,-0.9553 0.87003,-0.9553 0.5307,0 0.947,0.4401 1.107,0.9461 0.0272,0.0861 0.0582,0.1711 0.0929,0.2548 0.1577,0.3807 0.3888,0.7266 0.6802,1.018 0.2914,0.2914 0.6373,0.5226 1.018,0.6803 0.3807,0.1577 0.7888,0.2388 1.2009,0.2388 0.412,0 0.8201,-0.0811 1.2008,-0.2388 0.3807,-0.1577 0.7267,-0.3889 1.018,-0.6803 0.2914,-0.2914 0.5226,-0.6373 0.6803,-1.018 0.0346,-0.0837 0.0656,-0.1687 0.0928,-0.2548 0.16,-0.506 0.5763,-0.9461 1.107,-0.9461 z"
     fill="#797979"
     id="path3" />
  <defs
     id="defs7">
    <linearGradient
       id="paint0_linear_312_4644"
       x1="8.5297098"
       y1="29.475401"
       x2="28.4979"
       y2="13.3782"
       gradientUnits="userSpaceOnUse"
       gradientTransform="translate(0,-4.75542)">
      <stop
         stop-color="#F75AD7"
         id="stop4" />
      <stop
         offset="0.415"
         stop-color="#9D32FF"
         id="stop5" />
      <stop
         offset="0.692166"
         stop-color="#4F8FFF"
         id="stop6" />
      <stop
         offset="1"
         stop-color="#09E2FF"
         id="stop7" />
    </linearGradient>
  </defs>
</svg>
